<?xml version="1.0" standalone="no"?>
<!DOCTYPE svg PUBLIC "-//W3C//DTD SVG 20010904//EN"
 "http://www.w3.org/TR/2001/REC-SVG-20010904/DTD/svg10.dtd">
<svg version="1.0" xmlns="http://www.w3.org/2000/svg"
 width="600.000000pt" height="600.000000pt" viewBox="0 0 600.000000 600.000000"
 preserveAspectRatio="xMidYMid meet">
<metadata>
Created by potrace 1.16, written by Peter Selinger 2001-2019
</metadata>
<g transform="translate(0.000000,600.000000) scale(0.100000,-0.100000)"
fill="#b2ad9a" stroke="none">
<path d="M2870 5304 c-586 -43 -1100 -274 -1500 -674 -361 -360 -587 -821
-656 -1333 -20 -146 -22 -412 -5 -552 128 -1030 899 -1840 1911 -2009 608
-101 1247 52 1738 418 457 340 772 828 886 1373 74 357 68 687 -20 1038 -231
922 -1019 1615 -1959 1724 -108 12 -318 20 -395 15z m406 -119 c997 -131 1771
-896 1910 -1890 20 -141 22 -428 5 -555 -36 -261 -103 -487 -210 -705 -320
-648 -919 -1091 -1641 -1212 -150 -25 -512 -25 -669 0 -245 39 -473 114 -691
228 -615 323 -1040 913 -1157 1605 -25 151 -25 543 0 689 92 527 347 982 736
1318 349 300 775 483 1231 530 100 10 380 6 486 -8z"/>
<path d="M1703 4170 c-86 -12 -226 -101 -321 -205 -109 -119 -142 -211 -143
-395 0 -276 112 -446 340 -514 199 -59 475 60 598 257 63 100 75 140 81 262 3
82 0 127 -12 174 -31 123 -129 283 -204 334 -98 68 -229 101 -339 87z m139
-111 c102 -22 169 -66 229 -151 213 -304 83 -671 -272 -763 -239 -63 -447 100
-473 371 -22 221 86 408 294 513 89 45 128 50 222 30z"/>
<path d="M1663 3935 c-215 -99 -284 -439 -128 -624 67 -78 193 -103 292 -57
212 99 283 441 129 623 -68 80 -193 105 -293 58z m206 -35 c96 -48 154 -194
132 -330 -28 -172 -150 -304 -281 -304 -96 0 -159 45 -206 149 -24 51 -28 73
-28 145 1 254 202 433 383 340z"/>
<path d="M4220 4059 c-78 -15 -183 -74 -237 -133 -88 -95 -154 -246 -168 -381
-25 -234 132 -474 368 -565 110 -43 209 -55 292 -35 176 40 295 156 344 335
26 93 29 266 6 355 -41 158 -158 288 -347 390 -75 40 -89 45 -148 44 -36 -1
-85 -5 -110 -10z m241 -135 c105 -55 201 -149 246 -242 36 -73 38 -81 42 -194
2 -98 0 -129 -18 -186 -83 -273 -365 -357 -623 -186 -203 136 -262 386 -143
613 85 161 188 229 354 230 65 1 80 -3 142 -35z"/>
<path d="M4250 3851 c-78 -25 -147 -89 -182 -169 -26 -58 -35 -190 -18 -263
52 -223 255 -353 419 -270 232 119 204 555 -43 676 -56 28 -136 39 -176 26z
m158 -57 c188 -93 249 -401 112 -558 -147 -167 -393 -44 -442 223 -13 71 1
169 32 231 22 44 102 117 133 123 62 12 115 6 165 -19z"/>
<path d="M1156 3184 c-44 -43 -19 -116 42 -122 62 -6 97 73 52 118 -24 24 -72
26 -94 4z"/>
<path d="M2777 3109 c-76 -59 -39 -209 51 -209 52 0 92 45 92 105 0 104 -75
158 -143 104z"/>
<path d="M3190 3101 c-34 -33 -45 -68 -36 -115 18 -94 129 -117 171 -36 41 79
-7 180 -86 180 -11 0 -33 -13 -49 -29z"/>
<path d="M4820 3020 c-11 -11 -20 -33 -20 -50 0 -17 9 -39 20 -50 40 -40 120
-12 120 41 0 23 -18 60 -34 71 -21 14 -66 8 -86 -12z"/>
<path d="M1107 2673 c-32 -32 54 -208 202 -413 218 -303 607 -596 903 -681
251 -72 525 -104 903 -104 276 0 391 10 580 50 139 30 172 42 318 115 371 187
675 475 857 812 28 52 39 84 35 98 -14 43 -53 12 -100 -80 -67 -131 -197 -295
-259 -324 -61 -29 -114 -21 -223 33 -288 144 -771 225 -1403 238 -572 11
-1021 -49 -1286 -173 -132 -62 -197 -41 -299 94 -65 87 -113 168 -150 254 -29
66 -61 99 -78 81z m1623 -361 c38 -38 50 -88 50 -208 l0 -102 -44 -11 c-44
-11 -95 -7 -130 12 -17 8 -18 18 -13 119 6 120 29 186 70 206 32 16 36 15 67
-16z m221 7 c35 -35 50 -88 56 -198 5 -92 3 -108 -11 -120 -23 -20 -107 -26
-151 -11 l-37 12 4 112 c5 112 20 170 55 208 22 24 58 23 84 -3z m252 -9 c32
-38 47 -108 47 -220 l0 -88 -31 -11 c-41 -14 -101 -14 -134 1 -24 11 -25 14
-25 110 0 119 13 179 47 213 34 33 66 32 96 -5z m214 -4 c40 -34 53 -85 53
-208 l0 -106 -45 -11 c-63 -16 -133 2 -141 36 -8 31 4 176 18 226 11 35 57 87
78 87 5 0 22 -11 37 -24z m-908 -35 c28 -39 43 -113 39 -197 l-3 -69 -42 -13
c-31 -10 -51 -11 -82 -2 l-41 11 0 92 c0 105 10 150 42 184 29 31 62 29 87 -6z
m1135 0 c31 -34 45 -93 46 -188 l0 -92 -37 -10 c-47 -13 -49 -13 -95 0 l-38
10 0 83 c0 129 34 216 85 216 12 0 30 -9 39 -19z m-1345 -20 c28 -28 41 -84
41 -172 0 -85 -3 -89 -78 -89 -63 0 -72 12 -72 93 0 86 12 132 42 164 26 28
42 29 67 4z m1539 -13 c26 -28 41 -93 42 -175 0 -70 -11 -83 -72 -83 -76 0
-78 3 -78 96 0 88 17 148 47 172 24 17 37 15 61 -10z m-1715 -16 c20 -22 36
-92 37 -159 0 -58 -14 -73 -67 -73 -69 0 -73 5 -73 89 0 95 26 161 63 161 13
0 31 -8 40 -18z m1900 -24 c15 -20 21 -48 25 -109 5 -94 -4 -109 -68 -109 -64
0 -73 15 -68 106 6 99 28 147 65 142 14 -2 35 -15 46 -30z m-2067 -13 c11 -18
17 -49 18 -102 l1 -76 -32 -9 c-19 -5 -42 -4 -58 2 -27 10 -27 12 -23 83 5
112 53 164 94 102z m2236 -25 c12 -22 18 -58 18 -98 0 -59 -2 -63 -27 -73 -17
-6 -39 -7 -58 -2 -30 9 -30 9 -30 84 0 56 5 82 18 103 25 37 57 32 79 -14z
m-2247 -272 c0 -57 -4 -71 -22 -90 l-23 -22 -22 21 c-15 15 -23 38 -26 77 -6
78 -1 88 50 84 l43 -3 0 -67z m2231 62 c25 -10 26 -12 22 -75 -3 -50 -9 -70
-26 -87 l-22 -22 -22 22 c-17 17 -23 37 -26 87 -4 67 -4 68 45 84 1 1 14 -4
29 -9z m-2105 -10 c24 -13 27 -93 5 -144 -17 -42 -30 -50 -55 -36 -39 20 -57
160 -23 179 22 13 48 14 73 1z m731 -6 c4 -3 8 -43 8 -89 0 -127 -36 -197 -90
-180 -36 11 -54 63 -58 166 l-4 97 28 10 c27 11 96 8 116 -4z m-574 0 c20 -6
22 -12 22 -78 0 -88 -22 -141 -60 -141 -37 0 -60 53 -60 137 0 53 4 69 18 77
20 12 47 13 80 5z m172 -5 l33 -12 -5 -86 c-6 -94 -25 -145 -59 -156 -50 -16
-82 57 -77 175 3 69 5 75 28 81 37 10 44 10 80 -2z m190 0 l33 -12 -5 -86 c-6
-94 -25 -145 -59 -156 -50 -16 -82 57 -77 175 3 69 5 75 28 81 37 10 44 10 80
-2z m394 -2 c16 -12 18 -26 14 -114 -4 -117 -23 -158 -73 -158 -50 0 -69 41
-73 158 -5 116 2 127 73 127 23 0 49 -6 59 -13z m197 3 c16 -9 19 -22 19 -94
0 -124 -28 -190 -78 -184 -41 5 -64 47 -75 140 -12 93 -6 134 21 141 33 9 93
7 113 -3z m178 -1 l31 -11 0 -76 c0 -90 -13 -145 -41 -173 -31 -31 -61 -21
-87 31 -19 39 -22 58 -20 135 3 86 4 89 28 96 37 10 54 10 89 -2z m692 1 c47
-25 4 -202 -46 -187 -39 12 -62 166 -27 186 22 13 48 14 73 1z m-489 -16 c5
-3 8 -41 8 -85 0 -113 -32 -179 -80 -164 -33 11 -52 62 -58 156 l-5 86 29 11
c26 10 87 7 106 -4z m190 0 c5 -3 8 -41 8 -85 0 -113 -32 -179 -80 -164 -34
11 -53 63 -58 156 l-4 87 28 10 c26 10 87 7 106 -4z m149 6 c16 -9 19 -22 19
-78 0 -121 -56 -182 -100 -110 -28 45 -30 184 -2 191 31 8 63 7 83 -3z"/>
</g>
</svg>
