<?xml version="1.0" encoding="utf-8"?>
<!-- Generator: Adobe Illustrator 23.0.5, SVG Export Plug-In . SVG Version: 6.00 Build 0)  -->
<svg version="1.2" baseProfile="tiny" id="Слой_1"
	 xmlns="http://www.w3.org/2000/svg" xmlns:xlink="http://www.w3.org/1999/xlink" x="0px" y="0px" viewBox="0 0 2560 57"
	 xml:space="preserve">
<path fill="#454138" d="M0,10.5C0,11.8,7.8,12,64.5,12c63.8,0,64.5,0,64.5,2c0,1.8,0.7,2,6,2s6-0.2,6-2c0-2,0.7-2,35.5-2
	s35.5,0,35.5,2c0,1.8,0.7,2,6,2s6-0.2,6-2c0-2,0.7-2,35.5-2s35.5,0,35.5,2c0,1.8,0.7,2,6,2c5.3,0,6-0.2,6-2c0-2,0.7-2,35.5-2
	s35.5,0,35.5,2c0,1.8,0.7,2,6,2c5.3,0,6-0.2,6-2c0-2,0.7-2,35.5-2s35.5,0,35.5,2c0,1.8,0.7,2,6,2c5.3,0,6-0.2,6-2c0-2,0.7-2,35.5-2
	s35.5,0,35.5,2c0,1.8,0.7,2,6,2s6-0.2,6-2c0-2,0.7-2,35.5-2s35.5,0,35.5,2c0,1.8,0.7,2,6,2s6-0.2,6-2c0-2,0.7-2,35.5-2
	s35.5,0,35.5,2c0,1.8,0.7,2,6,2s6-0.2,6-2c0-2,0.7-2,35.5-2s35.5,0,35.5,2c0,1.8,0.7,2,6,2s6-0.2,6-2c0-2,0.7-2,35.5-2
	s35.5,0,35.5,2c0,1.8,0.7,2,6,2s6-0.2,6-2c0-2,0.7-2,35.5-2s35.5,0,35.5,2c0,1.8,0.7,2,6,2s6-0.2,6-2c0-2,0.7-2,35.5-2
	c34.8,0,35.5,0,35.5,2c0,1.8,0.7,2,6,2c5.3,0,6-0.2,6-2c0-2,0.7-2,35.5-2c34.8,0,35.5,0,35.5,2c0,1.8,0.7,2,6,2c5.3,0,6-0.2,6-2
	c0-2,0.7-2,35.5-2c34.8,0,35.5,0,35.5,2c0,1.8,0.7,2,6,2c5.3,0,6-0.2,6-2c0-2,0.7-2,35.5-2c34.8,0,35.5,0,35.5,2c0,1.8,0.7,2,6,2
	c5.3,0,6-0.2,6-2c0-2,0.7-2,35.5-2c34.8,0,35.5,0,35.5,2c0,1.8,0.7,2,6,2c5.3,0,6-0.2,6-2c0-2,0.7-2,35.5-2c34.8,0,35.5,0,35.5,2
	c0,1.8,0.7,2,6,2c5.3,0,6-0.2,6-2c0-2,0.7-2,35.5-2c34.8,0,35.5,0,35.5,2c0,1.8,0.7,2,6,2c5.3,0,6-0.2,6-2c0-2,0.7-2,35.5-2
	c34.8,0,35.5,0,35.5,2c0,1.8,0.7,2,6,2c5.3,0,6-0.2,6-2c0-2,0.7-2,35.5-2c34.8,0,35.5,0,35.5,2c0,1.8,0.7,2,6,2c5.3,0,6-0.2,6-2
	c0-2,0.7-2,35.5-2c34.8,0,35.5,0,35.5,2c0,1.8,0.7,2,6,2c5.3,0,6-0.2,6-2c0-2,0.7-2,35.5-2c34.8,0,35.5,0,35.5,2c0,1.8,0.7,2,6,2
	c5.3,0,6-0.2,6-2c0-2,0.7-2,35.5-2c34.8,0,35.5,0,35.5,2c0,1.8,0.7,2,6,2c5.3,0,6-0.2,6-2c0-2,0.7-2,35.5-2c34.8,0,35.5,0,35.5,2
	c0,1.8,0.7,2,6,2c5.3,0,6-0.2,6-2c0-2,0.7-2,35.5-2s35.5,0,35.5,2c0,1.8,0.7,2,6,2s6-0.2,6-2c0-2,0.7-2,35.5-2s35.5,0,35.5,2
	c0,1.8,0.7,2,6,2s6-0.2,6-2c0-2,0.7-2,35.5-2s35.5,0,35.5,2c0,1.8,0.7,2,6,2s6-0.2,6-2c0-2,0.7-2,35.5-2s35.5,0,35.5,2
	c0,1.8,0.7,2,6,2s6-0.2,6-2c0-2,0.7-2,35.5-2s35.5,0,35.5,2c0,1.8,0.7,2,6,2s6-0.2,6-2c0-2,0.7-2,47.5-2c41.6,0,47.5-0.2,47.5-1.5
	S2417.1,9,1280,9S0,9.2,0,10.5z"/>
<circle fill="#454138" cx="176.5" cy="40.5" r="4.5"/>
<circle fill="#454138" cx="161.5" cy="24.5" r="4.5"/>
<circle fill="#454138" cx="191.5" cy="24.5" r="4.5"/>
<circle fill="#454138" cx="262.5" cy="40.5" r="4.5"/>
<circle fill="#454138" cx="247.5" cy="24.5" r="4.5"/>
<circle fill="#454138" cx="277.5" cy="24.5" r="4.5"/>
<circle fill="#454138" cx="341.5" cy="40.5" r="4.5"/>
<circle fill="#454138" cx="326.5" cy="24.5" r="4.5"/>
<circle fill="#454138" cx="356.5" cy="24.5" r="4.5"/>
<circle fill="#454138" cx="426.5" cy="40.5" r="4.5"/>
<circle fill="#454138" cx="411.5" cy="24.5" r="4.5"/>
<circle fill="#454138" cx="441.5" cy="24.5" r="4.5"/>
<circle fill="#454138" cx="510.5" cy="40.5" r="4.5"/>
<circle fill="#454138" cx="495.5" cy="24.5" r="4.5"/>
<circle fill="#454138" cx="525.5" cy="24.5" r="4.5"/>
<circle fill="#454138" cx="592.5" cy="40.5" r="4.5"/>
<circle fill="#454138" cx="577.5" cy="24.5" r="4.5"/>
<circle fill="#454138" cx="607.5" cy="24.5" r="4.5"/>
<circle fill="#454138" cx="675.5" cy="40.5" r="4.5"/>
<circle fill="#454138" cx="660.5" cy="24.5" r="4.5"/>
<circle fill="#454138" cx="690.5" cy="24.5" r="4.5"/>
<circle fill="#454138" cx="758.5" cy="40.5" r="4.5"/>
<circle fill="#454138" cx="743.5" cy="24.5" r="4.5"/>
<circle fill="#454138" cx="773.5" cy="24.5" r="4.5"/>
<circle fill="#454138" cx="842.5" cy="40.5" r="4.5"/>
<circle fill="#454138" cx="827.5" cy="24.5" r="4.5"/>
<circle fill="#454138" cx="857.5" cy="24.5" r="4.5"/>
<circle fill="#454138" cx="923.5" cy="40.5" r="4.5"/>
<circle fill="#454138" cx="908.5" cy="24.5" r="4.5"/>
<circle fill="#454138" cx="938.5" cy="24.5" r="4.5"/>
<circle fill="#454138" cx="1008.5" cy="40.5" r="4.5"/>
<circle fill="#454138" cx="993.5" cy="24.5" r="4.5"/>
<circle fill="#454138" cx="1023.5" cy="24.5" r="4.5"/>
<circle fill="#454138" cx="1092.5" cy="40.5" r="4.5"/>
<circle fill="#454138" cx="1077.5" cy="24.5" r="4.5"/>
<circle fill="#454138" cx="1107.5" cy="24.5" r="4.5"/>
<circle fill="#454138" cx="1174.5" cy="40.5" r="4.5"/>
<circle fill="#454138" cx="1159.5" cy="24.5" r="4.5"/>
<circle fill="#454138" cx="1189.5" cy="24.5" r="4.5"/>
<circle fill="#454138" cx="1256.5" cy="40.5" r="4.5"/>
<circle fill="#454138" cx="1241.5" cy="24.5" r="4.5"/>
<circle fill="#454138" cx="1271.5" cy="24.5" r="4.5"/>
<circle fill="#454138" cx="1340.5" cy="40.5" r="4.5"/>
<circle fill="#454138" cx="1325.5" cy="24.5" r="4.5"/>
<circle fill="#454138" cx="1355.5" cy="24.5" r="4.5"/>
<circle fill="#454138" cx="1422.5" cy="40.5" r="4.5"/>
<circle fill="#454138" cx="1407.5" cy="24.5" r="4.5"/>
<circle fill="#454138" cx="1437.5" cy="24.5" r="4.5"/>
<circle fill="#454138" cx="1505.5" cy="40.5" r="4.5"/>
<circle fill="#454138" cx="1490.5" cy="24.5" r="4.5"/>
<circle fill="#454138" cx="1520.5" cy="24.5" r="4.5"/>
<circle fill="#454138" cx="1589.5" cy="40.5" r="4.5"/>
<circle fill="#454138" cx="1574.5" cy="24.5" r="4.5"/>
<circle fill="#454138" cx="1604.5" cy="24.5" r="4.5"/>
<circle fill="#454138" cx="1672.5" cy="40.5" r="4.5"/>
<circle fill="#454138" cx="1657.5" cy="24.5" r="4.5"/>
<circle fill="#454138" cx="1687.5" cy="24.5" r="4.5"/>
<circle fill="#454138" cx="1754.5" cy="40.5" r="4.5"/>
<circle fill="#454138" cx="1739.5" cy="24.5" r="4.5"/>
<circle fill="#454138" cx="1769.5" cy="24.5" r="4.5"/>
<circle fill="#454138" cx="1837.5" cy="40.5" r="4.5"/>
<circle fill="#454138" cx="1822.5" cy="24.5" r="4.5"/>
<circle fill="#454138" cx="1852.5" cy="24.5" r="4.5"/>
<circle fill="#454138" cx="1920.5" cy="40.5" r="4.5"/>
<circle fill="#454138" cx="1905.5" cy="24.5" r="4.5"/>
<circle fill="#454138" cx="1935.5" cy="24.5" r="4.5"/>
<circle fill="#454138" cx="2004.5" cy="40.5" r="4.5"/>
<circle fill="#454138" cx="1989.5" cy="24.5" r="4.5"/>
<circle fill="#454138" cx="2019.5" cy="24.5" r="4.5"/>
<circle fill="#454138" cx="2085.5" cy="40.5" r="4.5"/>
<circle fill="#454138" cx="2070.5" cy="24.5" r="4.5"/>
<circle fill="#454138" cx="2100.5" cy="24.5" r="4.5"/>
<circle fill="#454138" cx="2169.5" cy="40.5" r="4.5"/>
<circle fill="#454138" cx="2154.5" cy="24.5" r="4.5"/>
<circle fill="#454138" cx="2184.5" cy="24.5" r="4.5"/>
<circle fill="#454138" cx="2253.5" cy="40.5" r="4.5"/>
<circle fill="#454138" cx="2238.5" cy="24.5" r="4.5"/>
<circle fill="#454138" cx="2268.5" cy="24.5" r="4.5"/>
<circle fill="#454138" cx="2335.5" cy="40.5" r="4.5"/>
<circle fill="#454138" cx="2320.5" cy="24.5" r="4.5"/>
<circle fill="#454138" cx="2350.5" cy="24.5" r="4.5"/>
<circle fill="#454138" cx="2417.5" cy="40.5" r="4.5"/>
<circle fill="#454138" cx="2402.5" cy="24.5" r="4.5"/>
<circle fill="#454138" cx="2432.5" cy="24.5" r="4.5"/>
</svg>
